<svg width="143" height="80" viewBox="0 0 143 80" fill="none" xmlns="http://www.w3.org/2000/svg">
<path d="M63.85 6.20417C62.9717 6.49991 62.148 6.90737 61.3363 7.33454C60.5247 7.76171 59.7312 8.22174 58.9499 8.69492C57.3811 9.64127 55.8547 10.6468 54.3647 11.6983C53.6136 12.224 52.8868 12.7564 52.1539 13.3084C51.4391 13.867 50.6457 14.3796 49.8522 14.9054C49.4585 15.1682 49.0406 15.3785 48.6287 15.6217C48.2229 15.8649 47.8049 16.0817 47.3688 16.2855C46.5269 16.7258 45.6365 17.0741 44.7461 17.429C43.8376 17.7378 42.929 18.0467 41.9962 18.2702C41.5359 18.4016 41.0635 18.5002 40.5971 18.5988C40.1307 18.6973 39.6582 18.8025 39.1918 18.8748C38.253 19.0391 37.3081 19.1705 36.3693 19.2822C35.4304 19.394 34.4916 19.486 33.5527 19.5648C29.8095 19.8737 26.1147 20.0643 22.4381 20.3469L19.3672 20.5835L20.621 17.7313C21.5901 15.6611 22.8439 13.683 24.3824 11.9151C25.9148 10.1473 27.7138 8.60949 29.646 7.32139C33.5406 4.73864 37.8714 3.12853 42.1901 1.87987C43.2803 1.57099 44.3342 1.27525 45.4669 1.01895C45.9757 0.894082 46.6299 0.775788 47.1932 0.670638C47.7686 0.578631 48.3379 0.480053 48.9134 0.414334C51.2029 0.0923111 53.4925 -0.00626735 55.7699 0.000304539C60.3187 0.033164 64.807 0.532628 69.2347 1.3344C70.3492 1.53813 71.4394 1.76157 72.5721 2.02445L72.6266 2.03759L72.7901 2.0836L72.8871 2.11645L73.0809 2.1756L73.4746 2.2939L74.2681 2.54363C74.8132 2.73421 75.3826 2.90508 75.9095 3.10881C78.0537 3.88429 80.1555 4.80436 82.1725 5.88872C84.1895 6.96651 86.1156 8.22174 87.9206 9.60184C88.3567 9.93701 88.8473 10.3248 89.2229 10.6271C89.6408 10.9491 90.0951 11.3368 90.4767 11.5997C91.252 12.1846 92.0939 12.7235 92.9419 13.1704C94.6378 14.0839 96.5337 14.6162 98.5628 14.9908C100.592 15.3457 102.706 15.556 104.856 15.6611C107 15.786 109.175 15.832 111.349 15.8649C113.53 15.8846 115.716 15.8846 117.903 15.8649L115.892 18.3556C115.577 16.7586 114.899 15.2274 113.893 13.8407C112.894 12.4475 111.585 11.2054 110.114 10.1079C107.152 7.91944 103.614 6.30275 99.9741 4.98837L99.2896 4.74521L99.12 4.68607H99.0958C99.0958 4.68607 99.1988 4.70578 99.1443 4.68607H99.1322L99.0898 4.67292L98.9989 4.64663L98.6597 4.55463L97.2484 4.21289C96.2975 4.00259 95.3405 3.80543 94.3774 3.62799C93.4143 3.45055 92.4452 3.29282 91.4761 3.16139C90.507 3.0168 89.5318 2.90508 88.5505 2.79993C87.5753 2.69478 86.5941 2.61592 85.6129 2.55677C84.6316 2.49762 83.6443 2.45162 82.6631 2.43848L81.1852 2.42533L79.7073 2.45819C78.72 2.45819 77.7327 2.56334 76.7454 2.61592C77.7266 2.48448 78.7018 2.2939 79.6891 2.20846L81.167 2.05074L82.651 1.93901C83.6443 1.86672 84.6377 1.83386 85.6311 1.801C86.6244 1.78129 87.6238 1.77472 88.6232 1.79443C89.6226 1.81415 90.616 1.84044 91.6154 1.90615C92.6148 1.95873 93.6081 2.03759 94.6076 2.1296C95.607 2.2216 96.6003 2.3399 97.5937 2.47791L99.0898 2.70793L99.4713 2.77364L99.5622 2.79336H99.6107L99.7136 2.82622L99.8953 2.87222L100.622 3.06281C104.493 4.10774 108.351 5.44841 111.912 7.6237C113.681 8.71464 115.365 10.0356 116.788 11.6786C118.206 13.3084 120.241 17.7378 120.859 19.8606L119.351 19.8803H117.933C115.722 19.8934 113.512 19.8934 111.295 19.8606C109.072 19.8211 106.849 19.7686 104.608 19.6306C102.367 19.5057 100.095 19.2888 97.7996 18.8748C95.5161 18.4542 93.1357 17.7839 90.9794 16.6206C89.9013 16.0423 88.914 15.3983 87.9509 14.6753C87.4482 14.3139 87.0787 13.9919 86.6365 13.6501C86.1701 13.2755 85.8128 12.9798 85.3888 12.6578C83.7473 11.396 82.0211 10.2656 80.1918 9.27982C78.3687 8.28746 76.4607 7.44626 74.4861 6.72992C73.9955 6.53934 73.5109 6.39476 73.0203 6.21732L71.5787 5.77043C70.5793 5.52727 69.5133 5.3104 68.4715 5.11324C64.2619 4.33776 59.9735 3.85143 55.7275 3.80543C53.6076 3.79229 51.4876 3.87772 49.4221 4.14717C48.9012 4.20632 48.3925 4.29175 47.8837 4.37719C47.3688 4.47576 46.9388 4.54148 46.3815 4.67949C45.3761 4.90294 44.31 5.19867 43.2924 5.48126C39.1918 6.64449 35.2184 8.14288 31.8325 10.3773C30.1426 11.4945 28.6223 12.7892 27.3201 14.281C26.0178 15.7663 24.9518 17.4421 24.0977 19.2362L22.2867 16.6206C26.0239 16.6469 29.7368 16.7652 33.4013 16.7652C34.3159 16.7652 35.2305 16.7521 36.1391 16.7192C37.0476 16.6863 37.9501 16.6403 38.8466 16.5549C39.3009 16.5286 39.737 16.4629 40.1852 16.4103C40.6273 16.3577 41.0756 16.3052 41.5117 16.2132C42.396 16.0752 43.2561 15.8583 44.1222 15.648C44.9702 15.3851 45.8303 15.1354 46.6541 14.7871C47.072 14.6359 47.49 14.4585 47.8897 14.2613C48.2895 14.0642 48.7135 13.8933 49.1011 13.683C49.8825 13.2624 50.6699 12.8484 51.4512 12.3358C52.2265 11.8494 53.0261 11.3631 53.8256 10.9031C55.4247 9.97644 57.0479 9.09581 58.7076 8.27432C59.5374 7.86686 60.3732 7.47255 61.2273 7.11109C62.0813 6.74964 62.9475 6.41447 63.8439 6.18446L63.85 6.20417Z" fill="url(#paint0_linear_3070_3966)"/>
<path d="M21.3839 45.6027C21.0871 45.9247 20.8388 46.1942 20.657 46.5425C20.5298 46.7922 20.4753 47.1865 20.4753 47.6926V54.1462C20.4753 54.6522 20.5298 55.0465 20.657 55.2963C20.8388 55.6446 21.081 55.914 21.3839 56.236L20.4632 57.235C20.0513 56.7881 19.6758 56.3806 19.4154 55.8877C19.1428 55.3685 19.1064 54.7968 19.1064 54.2316V47.6137C19.1064 47.0551 19.1428 46.4768 19.4154 45.9576C19.6879 45.4516 20.0513 45.0572 20.4632 44.6104L21.3839 45.6093V45.6027Z" fill="white"/>
<path d="M118.738 56.236C119.035 55.9139 119.283 55.6445 119.465 55.2962C119.592 55.0465 119.647 54.6521 119.647 54.1461V47.6925C119.647 47.1865 119.592 46.7922 119.465 46.5424C119.283 46.1941 119.041 45.9247 118.738 45.6026L119.659 44.6037C120.071 45.0506 120.446 45.4581 120.707 45.9509C120.979 46.4701 121.016 47.0419 121.016 47.6071V54.225C121.016 54.7836 120.979 55.3619 120.707 55.8811C120.434 56.3871 120.071 56.7814 119.659 57.2283L118.738 56.2294V56.236Z" fill="white"/>
<path d="M26.5927 47.6663H26.199C25.3025 47.6663 24.6605 48.3038 24.6605 49.3487V55.6117H23.334V46.4242H24.612V47.3968C24.7453 47.1471 24.9876 46.8974 25.1995 46.7397C25.5933 46.4373 26.0475 46.2796 26.5866 46.2796V47.6663H26.5927Z" fill="white"/>
<path d="M31.5166 46.9237C31.9224 47.3837 32.1889 48.008 32.1889 48.9478V55.6183H30.9291V54.8034C30.7958 55.0531 30.602 55.2831 30.4385 55.4211C30.178 55.6314 29.8994 55.7563 29.4391 55.7563C28.8152 55.7563 28.3791 55.546 27.9854 55.0662C27.6583 54.6588 27.4463 53.9687 27.4463 53.0092C27.4463 52.1549 27.7067 51.4123 28.1974 50.9325C28.6214 50.5251 29.112 50.3082 29.9963 50.3082H30.8625V48.8558C30.8625 48.0015 30.5172 47.5414 29.863 47.5414C29.5662 47.5414 29.3724 47.6663 29.2089 47.8437C28.9787 48.1132 28.9 48.4089 28.9 48.9084H27.5735C27.5735 48.1986 27.7189 47.5086 28.2276 46.9565C28.6032 46.5491 29.2089 46.2796 29.863 46.2796C30.5475 46.2796 31.1229 46.4899 31.5166 46.9171V46.9237ZM30.1114 51.3597C29.7056 51.3597 29.4269 51.432 29.1604 51.6949C28.9121 51.9446 28.7667 52.4572 28.7667 52.9567C28.7667 53.9162 29.112 54.5011 29.7964 54.5011C30.4324 54.5011 30.8564 53.9162 30.8564 53.0618V51.3597H30.1053H30.1114Z" fill="white"/>
<path d="M34.6058 46.4242L35.896 53.2721L37.174 46.4242H38.6277L36.5865 55.6117H35.1994L33.1582 46.4242H34.6119H34.6058Z" fill="white"/>
<path d="M44.37 55.6117H43.0919V54.9019C42.9768 55.1122 42.7467 55.3423 42.571 55.4671C42.3106 55.6446 42.0017 55.7497 41.6564 55.7497C41.0204 55.7497 40.5783 55.5197 40.2148 55.0728C39.8696 54.6654 39.7061 54.1659 39.7061 53.1735V46.4176H41.0325V53.1735C41.0325 54.0082 41.4929 54.4682 42.0441 54.4682C42.5953 54.4682 43.0435 54.0082 43.0435 53.1735V46.4176H44.37V55.6051V55.6117Z" fill="white"/>
<path d="M47.6407 52.9369C47.6407 53.8438 48.0344 54.3236 48.9006 54.3236V55.6182C48.1798 55.6182 47.5741 55.5131 47.0714 55.053C46.611 54.6456 46.3203 54.0081 46.3203 52.996V42.9936H47.6468V52.9435L47.6407 52.9369Z" fill="white"/>
<path d="M51.699 44.7943H50.1484V43.125H51.699V44.7943ZM51.5839 55.6182H50.2575V46.4307H51.5839V55.6182Z" fill="white"/>
<path d="M57.1926 47.5217L54.5275 54.317H57.1926V55.6117H53.0557V54.5142L55.7208 47.6991H53.2374V46.4242H57.1926V47.5217Z" fill="white"/>
<path d="M63.2616 55.6117H61.9835V54.9019C61.8684 55.1122 61.6383 55.3423 61.4626 55.4671C61.2022 55.6446 60.8933 55.7497 60.548 55.7497C59.912 55.7497 59.4699 55.5197 59.1064 55.0728C58.7612 54.6654 58.5977 54.1659 58.5977 53.1735V46.4176H59.9241V53.1735C59.9241 54.0082 60.3845 54.4682 60.9357 54.4682C61.4869 54.4682 61.9351 54.0082 61.9351 53.1735V46.4176H63.2616V55.6051V55.6117Z" fill="white"/>
<path d="M72.7773 46.9565C73.1226 47.364 73.2679 47.8635 73.2679 48.8558V55.6117H71.9414V48.8558C71.9414 48.0212 71.4993 47.5612 70.942 47.5612C70.3848 47.5612 69.9305 48.0212 69.9305 48.8558V55.6117H68.604V48.8558C68.604 48.0212 68.1437 47.5612 67.5925 47.5612C67.0413 47.5612 66.5931 48.0212 66.5931 48.8558V55.6117H65.2666V46.4242H66.5446V47.134C66.6597 46.9237 66.8899 46.6937 67.0655 46.5688C67.326 46.3914 67.6349 46.2862 67.9801 46.2862C68.6343 46.2862 69.2582 46.674 69.5974 47.2457C69.7791 46.996 70.0214 46.7331 70.2818 46.5688C70.5423 46.4111 70.936 46.2862 71.2449 46.2862C71.9778 46.2862 72.4078 46.5162 72.7652 46.9631L72.7773 46.9565Z" fill="white"/>
<path d="M78.877 46.9237C79.2828 47.3837 79.5493 48.008 79.5493 48.9478V55.6183H78.2894V54.8034C78.1562 55.0531 77.9624 55.2831 77.7988 55.4211C77.5384 55.6314 77.2597 55.7563 76.7994 55.7563C76.1755 55.7563 75.7394 55.546 75.3457 55.0662C75.0186 54.6588 74.8066 53.9687 74.8066 53.0092C74.8066 52.1549 75.0671 51.4123 75.5577 50.9325C75.9817 50.5251 76.4723 50.3082 77.3567 50.3082H78.2228V48.8558C78.2228 48.0015 77.8776 47.5414 77.2234 47.5414C76.9266 47.5414 76.7328 47.6663 76.5692 47.8437C76.3391 48.1132 76.2603 48.4089 76.2603 48.9084H74.9338C74.9338 48.1986 75.0792 47.5086 75.588 46.9565C75.9635 46.5491 76.5692 46.2796 77.2234 46.2796C77.9078 46.2796 78.4833 46.4899 78.877 46.9171V46.9237ZM77.4717 51.3597C77.0659 51.3597 76.7873 51.432 76.5208 51.6949C76.2724 51.9446 76.1271 52.4572 76.1271 52.9567C76.1271 53.9162 76.4723 54.5011 77.1568 54.5011C77.7928 54.5011 78.2167 53.9162 78.2167 53.0618V51.3597H77.4657H77.4717Z" fill="white"/>
<path d="M82.8197 47.0616C82.9529 46.8645 83.1286 46.687 83.2921 46.5622C83.5526 46.365 83.8493 46.2796 84.2067 46.2796C84.7942 46.2796 85.2364 46.4767 85.6119 46.9565C86.1692 47.6465 86.2358 48.8558 86.2358 51.0179C86.2358 53.1801 86.1692 54.3696 85.6119 55.0596C85.2364 55.5394 84.7942 55.7497 84.2067 55.7497C83.8493 55.7497 83.5526 55.6445 83.2921 55.4671C83.1286 55.3422 82.8863 55.0925 82.7833 54.9019V55.6117H81.4932V42.9805H82.8197V47.0616ZM83.1467 47.8568C82.9347 48.0869 82.8197 48.4089 82.8197 48.9018V53.1078C82.8197 53.6073 82.9347 53.9424 83.1467 54.1724C83.3284 54.3696 83.5526 54.4747 83.8312 54.4747C84.1401 54.4747 84.3884 54.317 84.552 54.087C84.8488 53.6993 84.8972 52.9172 84.8972 51.0179C84.8972 49.1186 84.8488 48.3366 84.552 47.9489C84.3884 47.7188 84.1461 47.5611 83.8312 47.5611C83.5526 47.5611 83.3224 47.6663 83.1467 47.8634V47.8568Z" fill="white"/>
<path d="M91.0938 51.2873H87.8896V49.9204H91.0938V51.2873Z" fill="white"/>
<path d="M93.3651 47.134C93.7891 46.5096 94.4251 46.2796 95.1459 46.2796C95.8666 46.2796 96.3573 46.4373 96.7994 46.8974C97.3203 47.4297 97.4717 48.192 97.4839 48.9741H96.1574C96.1574 48.5995 96.1271 48.2118 95.8969 47.9094C95.7152 47.6794 95.4911 47.5546 95.164 47.5546C94.8369 47.5546 94.5765 47.7123 94.413 47.9423C94.104 48.4023 94.0677 49.3421 94.0677 51.0114C94.0677 52.6806 94.098 53.6204 94.413 54.0805C94.5765 54.3105 94.8551 54.4682 95.164 54.4682C95.4911 54.4682 95.7213 54.3433 95.8969 54.1133C96.1271 53.811 96.1574 53.4233 96.1574 53.0487H97.4839C97.4657 53.8307 97.3203 54.5931 96.7994 55.1254C96.3573 55.5854 95.8364 55.7431 95.1459 55.7431C94.4554 55.7431 93.7891 55.5131 93.3651 54.8888C92.8442 54.1593 92.7412 52.8647 92.7412 51.0048C92.7412 49.145 92.8381 47.8503 93.3651 47.1208V47.134Z" fill="white"/>
<path d="M99.7437 46.4242L100.725 53.2524L101.918 46.4242H103.063L104.286 53.2524L105.286 46.4242H106.758L104.977 55.6117H103.687L102.494 48.9741L101.331 55.6117H100.041L98.29 46.4242H99.7437Z" fill="white"/>
<path d="M108.575 46.4242L109.865 53.2721L111.143 46.4242H112.596L110.555 55.6117H109.168L107.127 46.4242H108.581H108.575Z" fill="white"/>
<path d="M117.339 47.5217L114.674 54.317H117.339V55.6117H113.202V54.5142L115.867 47.6991H113.384V46.4242H117.339V47.5217Z" fill="white"/>
<path d="M26.5148 62.269H25.6426V67.9471H26.5148V62.269Z" fill="white"/>
<path d="M29.2524 62.1836C29.0465 62.1836 28.8466 62.2427 28.677 62.361C28.5922 62.4202 28.4832 62.5188 28.4044 62.6305V62.269H27.5625V67.9471H28.4347V63.7871C28.4347 63.3271 28.6649 63.0314 29.0162 63.0314C29.3675 63.0314 29.6037 63.3337 29.6037 63.7871V67.9471H30.4759V63.7871C30.4759 63.2088 30.3851 62.8802 30.161 62.6042C29.9247 62.315 29.6401 62.1836 29.2585 62.1836H29.2524Z" fill="white"/>
<path d="M31.4816 68.3809C31.4816 68.9526 31.2574 69.1958 30.7305 69.1958H30.7002V70.0502H30.7305C31.106 70.0502 31.5361 70.0107 31.8813 69.6953C32.1963 69.4127 32.3538 68.9921 32.3538 68.4138V62.269H31.4816V68.3809Z" fill="white"/>
<path d="M34.7277 62.1836C34.2795 62.1836 33.9464 62.3216 33.6859 62.6239C33.3043 63.0708 33.2256 63.9054 33.2256 65.1081C33.2256 66.3107 33.3043 67.1454 33.692 67.5923C33.9585 67.9011 34.2795 68.0326 34.7459 68.0326C35.2123 68.0326 35.5394 67.888 35.7877 67.612C36.0724 67.2834 36.2056 66.8891 36.2178 66.3436V66.3107H35.3455V66.3436C35.3455 66.6393 35.2971 66.8299 35.182 66.9745C35.0669 67.1191 34.9337 67.1782 34.7459 67.1782C34.5581 67.1782 34.4006 67.0994 34.3098 66.9548C34.1402 66.7182 34.1099 66.2253 34.1039 65.3512H36.2299V65.3184C36.2299 63.9186 36.1572 63.0774 35.7635 62.6305C35.503 62.3282 35.1699 62.1902 34.7217 62.1902L34.7277 62.1836ZM34.7277 63.0379C34.9216 63.0379 35.0609 63.1037 35.1638 63.2548C35.3213 63.4585 35.3577 63.8989 35.3577 64.6218H34.1099C34.1099 63.8923 34.1402 63.4585 34.3037 63.2548C34.4067 63.1037 34.54 63.0379 34.7277 63.0379Z" fill="white"/>
<path d="M39.9248 63.8923V63.8594C39.9127 63.2614 39.7734 62.8539 39.4947 62.5713C39.2403 62.3019 38.9193 62.1836 38.465 62.1836C37.9684 62.1836 37.5928 62.361 37.3505 62.7159C37.0295 63.1628 36.9629 63.9317 36.9629 65.1081C36.9629 66.2845 37.0235 67.0534 37.3505 67.5003C37.5928 67.8551 37.9684 68.0326 38.465 68.0326C38.9193 68.0326 39.2403 67.9143 39.4947 67.6448C39.7734 67.3622 39.9127 66.9482 39.9248 66.3567V66.3239H39.0526V66.3567C39.0526 66.5802 39.0344 66.8102 38.9011 66.9876C38.7921 67.1257 38.6589 67.1914 38.4771 67.1914C38.2954 67.1914 38.144 67.1059 38.041 66.9679C37.8533 66.6853 37.8351 66.0807 37.8351 65.1147C37.8351 64.1486 37.8472 63.544 38.041 63.2614C38.144 63.1234 38.3015 63.0379 38.4771 63.0379C38.6589 63.0379 38.7921 63.1037 38.9011 63.2417C39.0344 63.4191 39.0526 63.6491 39.0526 63.8726V63.9054H39.9248V63.8923Z" fill="white"/>
<path d="M42.6265 67.9472V67.0928H42.5962C42.0511 67.0928 41.7967 66.8365 41.7967 66.2779V63.0182H42.5962V62.269H41.7967V60.7312H40.9244V62.269H40.3369V63.0182H40.9244V66.3108C40.9244 66.8891 41.0819 67.3163 41.3848 67.5923C41.7058 67.888 42.0874 67.9472 42.5901 67.9472H42.6204H42.6265Z" fill="white"/>
<path d="M44.1769 62.269H43.3047V67.9471H44.1769V62.269Z" fill="white"/>
<path d="M46.5637 68.0326C47.0725 68.0326 47.4419 67.8551 47.6842 67.5003C47.9992 67.0599 48.0597 66.3173 48.0597 65.1081C48.0597 63.8989 47.9992 63.1562 47.6842 62.7159C47.4359 62.3545 47.0725 62.1836 46.5637 62.1836C46.0549 62.1836 45.6975 62.3545 45.4492 62.7159C45.1282 63.1628 45.0615 63.9317 45.0615 65.1081C45.0615 66.2845 45.1221 67.0534 45.4492 67.5003C45.6975 67.8617 46.0488 68.0326 46.5637 68.0326ZM46.1397 63.2614C46.2366 63.1102 46.3941 63.0248 46.5637 63.0248C46.7333 63.0248 46.9029 63.1102 46.9998 63.2614C47.1875 63.5374 47.1936 64.1092 47.1936 65.1081C47.1936 66.107 47.1815 66.6788 46.9998 66.9548C46.9029 67.0994 46.7393 67.1914 46.5637 67.1914C46.388 67.1914 46.2366 67.1059 46.1397 66.9548C45.9519 66.6722 45.9337 66.0413 45.9337 65.1081C45.9337 64.1749 45.9458 63.544 46.1397 63.2614Z" fill="white"/>
<path d="M49.8164 63.7871C49.8164 63.3271 50.0465 63.0314 50.3978 63.0314C50.7491 63.0314 50.9854 63.3337 50.9854 63.7871V67.9471H51.8576V63.7871C51.8576 63.2088 51.7667 62.8736 51.5426 62.6042C51.3064 62.315 51.0217 62.1836 50.6401 62.1836C50.4342 62.1836 50.2343 62.2427 50.0647 62.361C49.9799 62.4202 49.8709 62.5188 49.7921 62.6305V62.269H48.9502V67.9471H49.8224V63.7871H49.8164Z" fill="white"/>
<path d="M54.8979 67.9471H55.7701V63.0182H56.5696V62.269H55.7701V61.7893C55.7701 61.2438 56.0245 60.9743 56.5393 60.9743H56.5696V60.12H56.5393C56.1517 60.12 55.7156 60.166 55.3643 60.488C55.0554 60.764 54.9039 61.1846 54.9039 61.7564V62.269H54.3164V63.0182H54.9039V67.9471H54.8979Z" fill="white"/>
<path d="M58.4719 62.1836C57.9631 62.1836 57.6057 62.3545 57.3574 62.7159C57.0364 63.1628 56.9697 63.9317 56.9697 65.1081C56.9697 66.2845 57.0303 67.0534 57.3574 67.5003C57.6057 67.8617 57.9631 68.0326 58.4719 68.0326C58.9807 68.0326 59.3501 67.8551 59.5924 67.5003C59.9074 67.0599 59.968 66.3173 59.968 65.1081C59.968 63.8989 59.9074 63.1562 59.5924 62.7159C59.3441 62.3545 58.9807 62.1836 58.4719 62.1836ZM58.908 66.9548C58.8111 67.0994 58.6475 67.1914 58.4719 67.1914C58.2962 67.1914 58.1448 67.1059 58.0479 66.9548C57.8601 66.6722 57.8419 66.0676 57.8419 65.1081C57.8419 64.1486 57.8541 63.544 58.0479 63.2614C58.1448 63.1102 58.3023 63.0248 58.4719 63.0248C58.6415 63.0248 58.8111 63.1102 58.908 63.2614C59.0957 63.5374 59.1018 64.1092 59.1018 65.1081C59.1018 66.107 59.0897 66.6788 58.908 66.9548Z" fill="white"/>
<path d="M61.7306 64.0894C61.7306 63.4848 62.088 63.0905 62.6392 63.0905H62.9117V62.177H62.8814C62.5483 62.177 62.2697 62.269 62.0153 62.4662C61.9184 62.5385 61.7912 62.6568 61.7003 62.7882V62.269H60.8584V67.9471H61.7306V64.0894Z" fill="white"/>
<path d="M66.2609 62.269H65.3887V67.9471H66.2609V62.269Z" fill="white"/>
<path d="M68.9985 62.1836C68.7926 62.1836 68.5927 62.2427 68.4231 62.361C68.3383 62.4202 68.2293 62.5188 68.1505 62.6305V62.269H67.3086V67.9471H68.1808V63.7871C68.1808 63.3271 68.411 63.0314 68.7623 63.0314C69.1136 63.0314 69.3498 63.3337 69.3498 63.7871V67.9471H70.222V63.7871C70.222 63.2088 70.1312 62.8736 69.9071 62.6042C69.6708 62.315 69.3862 62.1836 69.0046 62.1836H68.9985Z" fill="white"/>
<path d="M71.4157 66.3108C71.4157 66.8891 71.5731 67.3163 71.876 67.5923C72.197 67.888 72.5786 67.9472 73.0874 67.9472H73.1177V67.0928H73.0874C72.5423 67.0928 72.2879 66.8365 72.2879 66.2779V63.0182H73.0874V62.269H72.2879V60.7312H71.4157V62.269H70.8281V63.0182H71.4157V66.3108Z" fill="white"/>
<path d="M74.9469 62.4662C74.85 62.5385 74.7228 62.6568 74.632 62.7882V62.269H73.79V67.9471H74.6622V64.0894C74.6622 63.4848 75.0196 63.0905 75.5708 63.0905H75.8434V62.177H75.8131C75.4799 62.177 75.2013 62.269 74.9469 62.4662Z" fill="white"/>
<path d="M78.0601 67.8223C78.1328 67.7566 78.2297 67.6514 78.3084 67.5331V67.9537H79.1383V63.8463C79.1383 63.314 78.9989 62.9065 78.7203 62.5845C78.478 62.3216 78.1207 62.1836 77.6906 62.1836C77.2969 62.1836 76.9153 62.3413 76.673 62.6042C76.4005 62.8999 76.2672 63.3008 76.2672 63.82V63.8529H77.1394V63.82C77.1394 63.5177 77.1879 63.3468 77.3211 63.1957C77.4302 63.0774 77.5513 63.0182 77.6967 63.0182C78.1752 63.0182 78.2782 63.4388 78.2782 63.7871V64.6415H77.7754C77.2666 64.6415 76.9456 64.7532 76.6549 65.0292C76.352 65.325 76.1885 65.785 76.1885 66.3239C76.1885 66.8628 76.3036 67.3294 76.5277 67.6054C76.776 67.9077 77.0546 68.0392 77.4362 68.0392C77.6967 68.0392 77.8784 67.98 78.0662 67.8288L78.0601 67.8223ZM77.0546 66.291C77.0546 65.9821 77.1455 65.6864 77.2848 65.5484C77.4241 65.4038 77.5755 65.3512 77.842 65.3512H78.2721V66.3567C78.2721 66.8628 78.0238 67.2045 77.6543 67.2045C77.2848 67.2045 77.0546 66.8825 77.0546 66.291Z" fill="white"/>
<path d="M82.9662 62.269H82.0152L81.2581 66.3173L80.501 62.2953L80.4949 62.269H79.5439L80.8038 67.9209L80.8099 67.9471H81.7063L82.9601 62.3085L82.9662 62.269Z" fill="white"/>
<path d="M84.8076 62.1836C84.3594 62.1836 84.0263 62.3216 83.7658 62.6239C83.3842 63.0708 83.3115 63.9054 83.3115 65.1081C83.3115 66.3107 83.3903 67.1454 83.7779 67.5923C84.0384 67.9011 84.3654 68.0326 84.8258 68.0326C85.2861 68.0326 85.6193 67.888 85.8676 67.612C86.1523 67.2834 86.2855 66.8891 86.2976 66.3436V66.3107H85.4254V66.3436C85.4254 66.6393 85.377 66.8299 85.2619 66.9745C85.1468 67.1191 85.0135 67.1782 84.8258 67.1782C84.638 67.1782 84.4805 67.0994 84.3897 66.9548C84.2201 66.7182 84.1898 66.2253 84.1898 65.3512H86.3158V65.3184C86.3158 63.9186 86.2431 63.0774 85.8494 62.6305C85.589 62.3282 85.2619 62.1902 84.8076 62.1902V62.1836ZM84.8076 63.0379C85.0014 63.0379 85.1407 63.1037 85.2437 63.2548C85.4012 63.4585 85.4375 63.8923 85.4375 64.6218H84.1898C84.1898 63.8923 84.2201 63.4585 84.3836 63.2548C84.4866 63.1037 84.6198 63.0379 84.8076 63.0379Z" fill="white"/>
<path d="M88.0781 63.7871C88.0781 63.3271 88.3082 63.0314 88.6595 63.0314C89.0108 63.0314 89.2471 63.3337 89.2471 63.7871V67.9471H90.1193V63.7871C90.1193 63.2088 90.0284 62.8736 89.8043 62.6042C89.5681 62.315 89.2834 62.1836 88.9018 62.1836C88.6959 62.1836 88.496 62.2427 88.3264 62.361C88.2416 62.4202 88.1326 62.5188 88.0538 62.6305V62.269H87.2119V67.9471H88.0841V63.7871H88.0781Z" fill="white"/>
<path d="M93.5836 67.5003C93.8986 67.0599 93.9592 66.3173 93.9592 65.1081C93.9592 63.8989 93.8986 63.1562 93.5836 62.7159C93.3353 62.3545 92.9719 62.1836 92.4631 62.1836C91.9543 62.1836 91.5969 62.3545 91.3486 62.7159C91.0276 63.1628 90.9609 63.9317 90.9609 65.1081C90.9609 66.2845 91.0215 67.0534 91.3486 67.5003C91.5969 67.8617 91.9543 68.0326 92.4631 68.0326C92.9719 68.0326 93.3414 67.8551 93.5836 67.5003ZM92.033 63.2614C92.1299 63.1102 92.2874 63.0248 92.457 63.0248C92.6266 63.0248 92.7962 63.1102 92.8931 63.2614C93.0809 63.5374 93.087 64.1092 93.087 65.1081C93.087 66.107 93.0809 66.6788 92.8931 66.9548C92.7962 67.0994 92.6327 67.1914 92.457 67.1914C92.2814 67.1914 92.1299 67.1059 92.033 66.9548C91.8453 66.6722 91.8271 66.0676 91.8271 65.1081C91.8271 64.1486 91.8392 63.544 92.033 63.2614Z" fill="white"/>
<path d="M97.721 67.9471V62.269H96.8488V66.429C96.8488 66.8891 96.6187 67.1848 96.2674 67.1848C95.9161 67.1848 95.6798 66.8825 95.6798 66.429V62.269H94.8076V66.429C94.8076 67.0074 94.8985 67.3425 95.1226 67.612C95.3528 67.9011 95.6435 68.0326 96.0251 68.0326C96.231 68.0326 96.4309 67.9734 96.6005 67.8551C96.6853 67.796 96.7943 67.6974 96.8731 67.5857V67.9471H97.715H97.721Z" fill="white"/>
<path d="M100.574 64.8189L99.9142 64.464C99.7143 64.3589 99.5629 64.234 99.4963 64.1092C99.4357 63.9909 99.4115 63.866 99.4115 63.7148C99.4115 63.5045 99.4781 63.3205 99.5932 63.1957C99.7022 63.0774 99.8415 63.0182 100.023 63.0182C100.144 63.0182 100.314 63.0511 100.441 63.2022C100.568 63.3534 100.623 63.544 100.623 63.8529V63.8857H101.483V63.8529C101.483 63.314 101.338 62.8934 101.053 62.591C100.805 62.3216 100.447 62.1836 100.023 62.1836C99.5992 62.1836 99.2419 62.3347 98.9814 62.6173C98.6907 62.9328 98.5453 63.3205 98.5453 63.7806C98.5453 64.0829 98.5998 64.326 98.7089 64.5363C98.8482 64.7861 99.0965 65.0161 99.4297 65.2001L100.096 65.5681C100.32 65.693 100.453 65.8113 100.544 65.9559C100.629 66.1004 100.671 66.2582 100.671 66.4487C100.671 66.659 100.599 66.8562 100.478 66.9876C100.356 67.1191 100.211 67.1848 100.011 67.1848C99.8476 67.1848 99.678 67.1125 99.575 67.0008C99.4296 66.8365 99.363 66.6262 99.363 66.3436V66.3107H98.5029V66.3436C98.5029 66.8628 98.6422 67.2571 98.9511 67.6054C99.2055 67.8946 99.5811 68.0457 100.011 68.0457C100.465 68.0457 100.817 67.8946 101.089 67.5923C101.38 67.2702 101.537 66.8628 101.537 66.3962C101.537 66.0413 101.459 65.7127 101.313 65.4761C101.162 65.2198 100.938 65.0161 100.574 64.8255V64.8189Z" fill="white"/>
<path d="M106.164 66.429C106.164 66.8891 105.934 67.1848 105.583 67.1848C105.231 67.1848 104.995 66.8825 104.995 66.429V62.269H104.123V66.429C104.123 67.0074 104.214 67.3425 104.438 67.612C104.668 67.9011 104.959 68.0326 105.341 68.0326C105.546 68.0326 105.746 67.9734 105.916 67.8551C106.001 67.796 106.11 67.6974 106.188 67.5857V67.9471H107.03V62.269H106.158V66.429H106.164Z" fill="white"/>
<path d="M109.89 64.8189L109.23 64.464C109.03 64.3589 108.878 64.234 108.812 64.1092C108.751 63.9909 108.727 63.866 108.727 63.7148C108.727 63.5045 108.794 63.3205 108.909 63.1957C109.018 63.0774 109.157 63.0182 109.339 63.0182C109.46 63.0182 109.629 63.0511 109.757 63.2022C109.884 63.3534 109.938 63.544 109.938 63.8529V63.8857H110.798V63.8529C110.798 63.314 110.653 62.8934 110.368 62.591C110.12 62.3216 109.763 62.1836 109.339 62.1836C108.915 62.1836 108.557 62.3347 108.297 62.6173C108.006 62.9328 107.861 63.3205 107.861 63.7806C107.861 64.0829 107.915 64.326 108.024 64.5363C108.164 64.7861 108.412 65.0161 108.745 65.2001L109.411 65.5681C109.635 65.6996 109.769 65.8113 109.86 65.9559C109.944 66.1004 109.987 66.2582 109.987 66.4487C109.987 66.659 109.914 66.8562 109.793 66.9876C109.672 67.1191 109.526 67.1848 109.327 67.1848C109.163 67.1848 108.993 67.1125 108.89 67.0008C108.745 66.8365 108.678 66.6262 108.678 66.3436V66.3107H107.818V66.3436C107.818 66.8628 107.958 67.2571 108.267 67.6054C108.521 67.8946 108.897 68.0457 109.327 68.0457C109.781 68.0457 110.132 67.8946 110.405 67.5923C110.695 67.2702 110.853 66.8628 110.853 66.3962C110.853 66.0413 110.774 65.7127 110.629 65.4761C110.477 65.2198 110.253 65.0161 109.89 64.8255V64.8189Z" fill="white"/>
<path d="M114.481 65.3118C114.481 63.912 114.408 63.0708 114.014 62.6239C113.754 62.3216 113.427 62.1836 112.973 62.1836C112.518 62.1836 112.191 62.3216 111.931 62.6239C111.549 63.0708 111.477 63.9054 111.477 65.1081C111.477 66.3107 111.555 67.1454 111.943 67.5923C112.203 67.9011 112.53 68.0326 112.991 68.0326C113.451 68.0326 113.784 67.888 114.033 67.612C114.317 67.2834 114.451 66.8891 114.463 66.3436V66.3107H113.59V66.3436C113.59 66.6393 113.542 66.8299 113.427 66.9745C113.312 67.1191 113.179 67.1782 112.991 67.1782C112.803 67.1782 112.646 67.0994 112.555 66.9548C112.385 66.7182 112.355 66.2253 112.355 65.3512H114.481V65.3184V65.3118ZM112.973 63.0379C113.166 63.0379 113.306 63.1037 113.409 63.2548C113.566 63.4585 113.603 63.8923 113.603 64.6218H112.355C112.355 63.8923 112.385 63.4585 112.549 63.2548C112.652 63.1037 112.785 63.0379 112.973 63.0379Z" fill="white"/>
<path d="M45.7763 73.6646C45.9338 73.5595 46.061 73.4083 46.1458 73.244C46.3033 72.9286 46.3275 72.5934 46.3275 71.9625C46.3275 71.1279 46.2063 70.6547 45.9095 70.3327C45.6673 70.0698 45.322 69.9318 44.898 69.9318C44.4983 69.9318 44.1409 70.0764 43.8865 70.3392C43.6079 70.635 43.4867 71.0162 43.4867 71.555V72.0874H44.3589V71.509C44.3589 71.0556 44.5588 70.7861 44.898 70.7861C45.0616 70.7861 45.1888 70.8387 45.2857 70.957C45.4129 71.1279 45.4613 71.3973 45.4613 72.0085C45.4613 72.6657 45.4189 72.9089 45.2675 73.0929C45.1948 73.1915 45.0676 73.244 44.9041 73.244H44.4922V74.0655H44.9041C45.0797 74.0655 45.2251 74.1312 45.322 74.2627C45.4795 74.4598 45.5219 74.6701 45.5219 75.5968C45.5219 76.4117 45.4432 76.668 45.3099 76.8323C45.219 76.9637 45.0858 77.0229 44.9041 77.0229C44.5467 77.0229 44.3165 76.7271 44.3165 76.2737V75.7216H43.4443V76.2408C43.4443 76.7929 43.5715 77.1674 43.8623 77.4566C44.0985 77.7195 44.4861 77.8772 44.9041 77.8772C45.322 77.8772 45.6975 77.7261 45.9519 77.4566C46.3275 77.0557 46.388 76.5825 46.388 75.5902C46.388 74.7621 46.3517 74.4073 46.1518 74.0524C46.061 73.9012 45.9338 73.7698 45.7763 73.6515V73.6646Z" fill="white"/>
<path d="M49.7494 70.359C49.495 70.0961 49.1013 69.9384 48.7015 69.9384C48.3018 69.9384 47.9141 70.0961 47.6597 70.359C47.3751 70.6679 47.2539 71.0425 47.2539 71.5748V76.254C47.2539 76.7863 47.3811 77.1609 47.6658 77.4698C47.9202 77.7327 48.3078 77.8904 48.7076 77.8904C49.1074 77.8904 49.5071 77.7327 49.7555 77.4698C50.0401 77.1609 50.1613 76.7863 50.1613 76.254V71.5748C50.1613 71.0425 50.0341 70.6679 49.7555 70.359H49.7494ZM48.1201 71.5419C48.1201 71.0819 48.3442 70.7927 48.7015 70.7927C49.0589 70.7927 49.2891 71.0885 49.2891 71.5419V76.2868C49.2891 76.7403 49.0589 77.036 48.7015 77.036C48.3442 77.036 48.1201 76.7469 48.1201 76.2868V71.5419Z" fill="white"/>
<path d="M53.5287 70.359C53.2743 70.0961 52.8806 69.9384 52.4808 69.9384C52.0811 69.9384 51.6934 70.0961 51.439 70.359C51.1543 70.6679 51.0332 71.0425 51.0332 71.5748V76.254C51.0332 76.7863 51.1604 77.1609 51.439 77.4698C51.6934 77.7327 52.0811 77.8904 52.4808 77.8904C52.8806 77.8904 53.2804 77.7327 53.5287 77.4698C53.8134 77.1609 53.9345 76.7863 53.9345 76.254V71.5748C53.9345 71.0425 53.8073 70.6679 53.5287 70.359ZM51.8994 71.5419C51.8994 71.0819 52.1235 70.7927 52.4808 70.7927C52.8382 70.7927 53.0684 71.0885 53.0684 71.5419V76.2868C53.0684 76.7403 52.8382 77.036 52.4808 77.036C52.1235 77.036 51.8994 76.7469 51.8994 76.2868V71.5419Z" fill="white"/>
<path d="M60.4221 72.0414C60.2344 72.0414 59.9921 72.1137 59.8164 72.2189C59.6408 72.324 59.4954 72.4949 59.4167 72.6066C59.1926 72.2649 58.8049 72.0414 58.4233 72.0414C58.2174 72.0414 58.0175 72.1006 57.8479 72.2189C57.7631 72.278 57.6541 72.3766 57.5753 72.4883V72.1269H56.7334V77.805H57.6056V73.645C57.6056 73.1849 57.8358 72.8892 58.1871 72.8892C58.5384 72.8892 58.7746 73.1915 58.7746 73.645V77.805H59.6468V73.645C59.6468 73.1915 59.8831 72.8892 60.2344 72.8892C60.5857 72.8892 60.8158 73.1849 60.8158 73.645V77.805H61.688V73.645C61.688 73.0469 61.6032 72.7315 61.3791 72.462C61.1369 72.1597 60.8582 72.0414 60.4282 72.0414H60.4221Z" fill="white"/>
<path d="M64.6381 72.462C64.5594 72.3635 64.4685 72.278 64.3837 72.2189C64.2323 72.1006 64.0385 72.0414 63.8083 72.0414C63.4509 72.0414 63.1723 72.1729 62.9482 72.4555C62.6272 72.8564 62.5303 73.4215 62.5303 74.8871C62.5303 76.1817 62.5908 76.8718 62.9482 77.3055C63.1723 77.5947 63.4631 77.7393 63.8083 77.7393C64.0264 77.7393 64.2141 77.6801 64.3777 77.5487C64.4625 77.483 64.5473 77.3975 64.6078 77.3121V78.0219C64.6078 78.5673 64.5594 78.8302 64.4261 78.9879C64.3232 79.1062 64.1778 79.1719 64.0082 79.1719C63.8144 79.1719 63.6751 79.1194 63.5903 79.0077C63.4449 78.8434 63.4207 78.6396 63.4207 78.357V78.3242H62.5484V78.357C62.5484 78.8894 62.6817 79.2968 62.9603 79.5925C63.2147 79.8554 63.5842 80 64.0082 80C64.4322 80 64.8138 79.8357 65.05 79.5663C65.3589 79.2048 65.48 78.7711 65.48 77.9693V72.1269H64.6381V72.462ZM64.4261 73.0601C64.5533 73.1981 64.6078 73.3887 64.6078 73.6778V76.0963C64.6078 76.392 64.5473 76.5892 64.4261 76.7206C64.3171 76.8258 64.1717 76.8849 64.0142 76.8849C63.8204 76.8849 63.6811 76.7666 63.5963 76.6681C63.4267 76.438 63.3964 76.0043 63.3964 74.8871C63.3964 73.7698 63.4267 73.3361 63.5963 73.1061C63.6751 73.0009 63.8144 72.8826 64.0142 72.8826C64.1778 72.8826 64.3171 72.9418 64.4201 73.0601H64.4261Z" fill="white"/>
<path d="M66.0002 78.5673L65.9941 78.6068H66.8421L68.6956 69.2615L68.7016 69.2221H67.8537L66.0002 78.5673Z" fill="white"/>
<path d="M71.4335 73.6646C71.591 73.5529 71.7182 73.4149 71.803 73.244C71.9605 72.9286 71.9847 72.5803 71.9847 71.9625C71.9847 71.1279 71.8636 70.6547 71.5668 70.3327C71.3245 70.0698 70.9732 69.9318 70.5553 69.9318C70.1555 69.9318 69.7981 70.0764 69.5437 70.3392C69.2712 70.635 69.144 71.0096 69.144 71.555V72.0874H70.0162V71.509C70.0162 71.0556 70.2161 70.7861 70.5553 70.7861C70.7188 70.7861 70.846 70.8387 70.9429 70.957C71.0701 71.1279 71.1186 71.3973 71.1186 72.0085C71.1186 72.6657 71.0762 72.9089 70.9247 73.0929C70.852 73.1915 70.7248 73.244 70.5613 73.244H70.1494V74.0655H70.5613C70.737 74.0655 70.8823 74.1312 70.9792 74.2627C71.1307 74.4598 71.1791 74.6701 71.1791 75.5968C71.1791 76.4117 71.1004 76.668 70.9671 76.8323C70.8702 76.9637 70.743 77.0229 70.5613 77.0229C70.2039 77.0229 69.9738 76.7271 69.9738 76.2737V75.7216H69.1016V76.2408C69.1016 76.7929 69.2288 77.1674 69.5195 77.4566C69.7557 77.7195 70.1434 77.8772 70.5613 77.8772C70.9792 77.8772 71.3548 77.7261 71.6092 77.4566C71.9847 77.0557 72.0453 76.5825 72.0453 75.5902C72.0453 74.7621 72.0089 74.4073 71.8091 74.0524C71.7182 73.9012 71.591 73.7698 71.4275 73.6515L71.4335 73.6646Z" fill="white"/>
<path d="M78.3628 72.0414C78.175 72.0414 77.9327 72.1137 77.7571 72.2189C77.5814 72.324 77.436 72.4949 77.3512 72.6066C77.1271 72.2649 76.7455 72.0414 76.3579 72.0414C76.1519 72.0414 75.9521 72.1006 75.7825 72.2189C75.6977 72.278 75.5886 72.3766 75.5099 72.4883V72.1269H74.668V77.805H75.5402V73.645C75.5402 73.1849 75.7703 72.8892 76.1217 72.8892C76.473 72.8892 76.7092 73.1915 76.7092 73.645V77.805H77.5814V73.645C77.5814 73.1915 77.8176 72.8892 78.1689 72.8892C78.5202 72.8892 78.7504 73.1849 78.7504 73.645V77.805H79.6226V73.645C79.6226 73.0469 79.5378 72.7315 79.3137 72.462C79.0714 72.1597 78.7928 72.0414 78.3628 72.0414Z" fill="white"/>
<path d="M81.6218 70.0239H80.7012V77.805H83.5116V76.9046H81.6218V70.0239Z" fill="white"/>
<path d="M87.2309 76.1752L86.4678 72.1532L86.4617 72.1269H85.5107L86.7706 77.7787L86.7767 77.805H87.6731L88.9269 72.1663L88.933 72.1269H87.982L87.2309 76.1752Z" fill="white"/>
<path d="M90.3195 72.1269H89.4473V77.805H90.3195V72.1269Z" fill="white"/>
<path d="M93.657 72.4423C93.4148 72.1795 93.0574 72.0414 92.6273 72.0414C92.2336 72.0414 91.852 72.1992 91.6098 72.462C91.3372 72.7578 91.2039 73.1587 91.2039 73.6778V73.7107H92.0762V73.6778C92.0762 73.3755 92.1246 73.2047 92.2579 73.0535C92.3669 72.9352 92.488 72.8761 92.6334 72.8761C93.1119 72.8761 93.2149 73.2967 93.2149 73.645V74.4993H92.7121C92.2034 74.4993 91.8823 74.611 91.5916 74.8871C91.2887 75.1828 91.1191 75.6428 91.1191 76.1817C91.1191 76.7206 91.2342 77.1872 91.4583 77.4633C91.7067 77.7656 91.9853 77.897 92.3669 77.897C92.6273 77.897 92.809 77.8378 92.9968 77.6867C93.0695 77.621 93.1664 77.5158 93.2452 77.3975V77.8181H94.075V73.7107C94.075 73.1784 93.9357 72.7709 93.657 72.4489V72.4423ZM93.2088 75.2091V76.2146C93.2088 76.7206 92.9605 77.0624 92.591 77.0624C92.2215 77.0624 91.9914 76.7403 91.9914 76.1489C91.9914 75.84 92.0822 75.5443 92.2215 75.4062C92.3608 75.2617 92.5123 75.2091 92.7788 75.2091H93.2088Z" fill="white"/>
<path d="M95.9162 76.1357V70.0239H95.0439V76.1686C95.0439 76.7469 95.1954 77.1675 95.5164 77.4501C95.8616 77.759 96.2675 77.805 96.6551 77.805H96.6854V76.9506H96.6551C96.1584 76.9506 95.9162 76.6878 95.9162 76.1357Z" fill="white"/>
<path d="M2.48035 33.4249V25.7687L0.154454 25.7555C-0.0514847 24.704 -0.0514847 23.6591 0.154454 22.6076C2.11087 22.3841 4.27929 22.4104 6.25388 22.6076V33.5498C6.25388 35.9485 7.68334 37.1446 9.50044 37.1446C11.3176 37.1446 12.8863 35.9222 12.8863 33.5498V22.6076C13.9705 22.4564 15.3515 22.4104 16.4539 22.6602V33.4249C16.4539 37.9464 13.6919 40.424 9.47622 40.424C4.96373 40.424 2.4743 37.6244 2.4743 33.4249H2.48035Z" fill="white"/>
<path d="M21.2266 40.0954V25.7555H18.925C18.719 24.704 18.719 23.6525 18.925 22.601C20.9056 22.4499 23.0256 22.4499 25.0244 22.601V36.8423H32.6684C32.8985 37.9136 32.8985 39.0176 32.6684 40.0889H21.2206L21.2266 40.0954Z" fill="white"/>
<path d="M36.4779 40.0954V25.8016H31.4142C31.2083 24.7501 31.2083 23.6525 31.4142 22.601H45.3938C45.5998 23.6525 45.5998 24.7501 45.3938 25.8016H40.2817V40.0954C39.2217 40.2466 37.5863 40.2926 36.484 40.0954H36.4779Z" fill="white"/>
<path d="M46.3818 31.3548C46.3818 26.0579 49.4891 22.2856 55.0191 22.2856C60.5492 22.2856 63.6989 26.0579 63.6989 31.3548C63.6989 36.6517 60.5916 40.424 55.0191 40.424C49.4467 40.424 46.3818 36.678 46.3818 31.3548ZM59.6891 31.3811C59.6891 27.6614 58.0295 25.5584 55.0131 25.5584C51.9967 25.5584 50.3855 27.6548 50.3855 31.3811C50.3855 35.1074 52.0452 37.1512 55.0131 37.1512C57.981 37.1512 59.6891 35.1271 59.6891 31.3811Z" fill="white"/>
<path d="M67.2603 40.0889V25.749H64.9586C64.7527 24.704 64.6618 23.7051 64.9586 22.6076C67.0059 22.3842 69.0592 22.3842 71.0822 22.6076L73.82 27.0042L76.3276 31.2234H76.4185L78.7444 27.0042L81.3247 22.6076C82.6572 22.3842 84.0201 22.3842 85.3526 22.6076V40.0954C84.0625 40.3189 82.9782 40.3517 81.6942 40.1283V28.5486L81.5306 28.5223L76.5578 36.8949H75.8431L70.8945 28.6472L70.7552 28.6735V40.1151C69.671 40.2663 68.3808 40.2663 67.2542 40.0954L67.2603 40.0889Z" fill="white"/>
<path d="M124.5 39.0702C124.36 37.8478 124.475 36.6189 124.893 35.4228C126.159 36.1194 128.255 37.2958 130.95 37.2958C133.646 37.2958 134.033 36.2968 134.033 35.3702C134.033 33.8455 132.513 33.5432 130.532 33.1226C127.468 32.426 124.475 31.6965 124.475 27.5759C124.475 23.7248 127.098 22.279 131.314 22.279C134.354 22.279 136.196 23.0545 137.141 23.5539C137.165 25.1509 136.886 26.0053 136.565 26.8793C134.93 25.8541 133.319 25.1049 131.314 25.1049C129.745 25.1049 128.364 25.5518 128.364 27.129C128.364 28.9297 130.163 29.0743 131.817 29.5015C135.227 30.323 137.874 31.0788 137.874 34.897C137.874 38.7153 135.178 40.3188 130.757 40.3188C128.637 40.3188 126.153 39.9705 124.494 39.0702H124.5Z" fill="white"/>
<path d="M109.205 33.5498C111.628 32.7415 112.943 30.7962 112.943 28.3186C112.943 25.0129 110.798 22.6076 107.176 22.6076H96.7218C96.5159 23.6591 96.5159 24.6844 96.7218 25.7621L99.0538 25.749V40.1283C100.162 40.3518 101.779 40.2795 102.839 40.1283V33.7404H105.081L109.302 40.0889C110.617 40.3123 112.416 40.3123 113.736 40.0889L109.205 33.5367V33.5498ZM102.839 25.8147H106.667C108.145 25.8147 109.09 26.6625 109.09 28.22C109.09 29.5476 108.26 30.5465 106.667 30.5465H102.839V25.8147Z" fill="white"/>
<path d="M93.4755 32.4522V22.739C92.3247 22.5418 90.7377 22.5878 89.6777 22.739V32.4522V40.0494C90.8286 40.2465 92.4155 40.2465 93.4755 40.1019V32.4588V32.4522Z" fill="white"/>
<path d="M120.731 32.4918V22.7785C119.581 22.5813 117.994 22.6274 116.934 22.7785V32.4918V40.0889C118.084 40.286 119.671 40.286 120.731 40.1415V32.4983V32.4918Z" fill="white"/>
<path d="M140.12 23.1859C140.484 23.1859 140.829 23.2845 141.156 23.4816C141.483 23.6788 141.75 23.9548 141.937 24.3229C142.125 24.6909 142.222 25.072 142.222 25.4729C142.222 25.8738 142.131 26.2484 141.944 26.6099C141.756 26.9713 141.501 27.2539 141.168 27.4511C140.835 27.6482 140.484 27.7534 140.12 27.7534C139.757 27.7534 139.406 27.6548 139.072 27.4511C138.739 27.2473 138.479 26.9713 138.297 26.6099C138.115 26.2484 138.019 25.8672 138.019 25.4729C138.019 25.0786 138.115 24.6909 138.303 24.3229C138.491 23.9548 138.751 23.6788 139.085 23.4816C139.418 23.2845 139.763 23.1859 140.12 23.1859ZM140.12 23.6328C139.83 23.6328 139.551 23.7117 139.291 23.8694C139.03 24.0271 138.818 24.2506 138.661 24.5463C138.503 24.842 138.43 25.1509 138.43 25.4729C138.43 25.795 138.503 26.0973 138.655 26.3864C138.806 26.6756 139.012 26.9056 139.278 27.0633C139.545 27.2211 139.824 27.3065 140.12 27.3065C140.417 27.3065 140.696 27.2276 140.962 27.0633C141.229 26.899 141.435 26.6756 141.586 26.3864C141.738 26.0973 141.81 25.7884 141.81 25.4729C141.81 25.1575 141.732 24.842 141.58 24.5463C141.429 24.2506 141.217 24.0271 140.95 23.8694C140.684 23.7117 140.405 23.6328 140.114 23.6328H140.12ZM139.169 26.6887V24.2637H139.624C140.048 24.2637 140.284 24.2637 140.338 24.2637C140.49 24.2768 140.605 24.3097 140.69 24.3623C140.775 24.4149 140.841 24.4871 140.896 24.5923C140.95 24.6974 140.98 24.8092 140.98 24.9406C140.98 25.1181 140.926 25.2626 140.823 25.3875C140.72 25.5124 140.569 25.5912 140.381 25.6175C140.447 25.6438 140.502 25.6767 140.538 25.7095C140.575 25.7424 140.623 25.8015 140.69 25.8935C140.708 25.9198 140.762 26.0184 140.853 26.1893L141.12 26.6756H140.563L140.375 26.2813C140.248 26.0184 140.145 25.8475 140.06 25.7818C139.975 25.7161 139.872 25.6767 139.745 25.6767H139.63V26.669H139.175L139.169 26.6887ZM139.624 25.3152H139.805C140.066 25.3152 140.229 25.3021 140.29 25.2823C140.351 25.2626 140.405 25.2232 140.441 25.1706C140.478 25.1181 140.496 25.0523 140.496 24.9866C140.496 24.9209 140.478 24.8617 140.441 24.8092C140.405 24.7566 140.357 24.7172 140.29 24.6975C140.223 24.6777 140.06 24.6646 139.805 24.6646H139.624V25.3284V25.3152Z" fill="white"/>
<path d="M26.575 60.2515H25.5635V61.3358H26.575V60.2515Z" fill="white"/>
<path d="M32.4148 60.2515H31.4033V61.3358H32.4148V60.2515Z" fill="white"/>
<path d="M44.2371 60.2515H43.2256V61.3358H44.2371V60.2515Z" fill="white"/>
<path d="M66.3211 60.2515H65.3096V61.3358H66.3211V60.2515Z" fill="white"/>
<path d="M90.3865 70.1093H89.375V71.1936H90.3865V70.1093Z" fill="white"/>
<defs>
<linearGradient id="paint0_linear_3070_3966" x1="19.0704" y1="10.2853" x2="121.495" y2="10.2853" gradientUnits="userSpaceOnUse">
<stop stop-color="#7D2346"/>
<stop offset="0.23" stop-color="#B12E6A"/>
<stop offset="0.46" stop-color="#B12E6A"/>
<stop offset="0.76" stop-color="#F47E4D"/>
</linearGradient>
</defs>
</svg>
